<svg width="16" height="13" viewBox="0 0 16 13" fill="none" xmlns="http://www.w3.org/2000/svg">
<path fill-rule="evenodd" clip-rule="evenodd" d="M0.722044 4.38612L0.71248 4.39259C0.267362 4.69397 0 5.20135 0 5.74467V12.1875C0 12.6362 0.358172 13 0.8 13H1.6C2.04183 13 2.4 12.6362 2.4 12.1875V11.375H13.6V12.1875C13.6 12.6362 13.9582 13 14.4 13H15.2C15.6418 13 16 12.6362 16 12.1875V5.74467C16 5.20135 15.7326 4.69397 15.2875 4.39259L15.278 4.38612C15.5695 4.21509 15.8336 4.04709 15.8849 3.97222C16.0086 3.79167 16.0655 3.25 15.8849 3.25H14.4L13.4633 1.34742C13.0568 0.52163 12.2258 0 11.3167 0H4.68328C3.77423 0 2.9432 0.521631 2.53666 1.34742L1.6 3.25H0.115105C-0.06549 3.25 -0.00863609 3.79167 0.115105 3.97222C0.166415 4.04709 0.430482 4.21509 0.722044 4.38612ZM3.28157 1.67279L1.91373 4.27757C1.77162 4.54818 1.9647 4.875 2.26667 4.875H13.7333C14.0353 4.875 14.2284 4.54818 14.0863 4.27757L12.7184 1.67279C12.4404 1.14327 11.8976 0.8125 11.3067 0.8125H4.69334C4.10244 0.8125 3.55964 1.14327 3.28157 1.67279ZM0.8 7.37739V6.3948C0.8 6.08126 1.13489 5.8859 1.40155 6.04389L4.07261 7.62635C4.44072 7.84444 4.26254 8.41805 3.83785 8.38211L1.53356 8.18709C1.11893 8.15199 0.8 7.79996 0.8 7.37739ZM15.2 6.3948V7.37739C15.2 7.79996 14.8811 8.15199 14.4664 8.18709L12.1622 8.38211C11.7375 8.41805 11.5593 7.84444 11.9274 7.62635L14.5985 6.04389C14.8651 5.8859 15.2 6.08126 15.2 6.3948Z" fill="#E35973"/>
</svg>
